<svg width="250" height="52" viewBox="0 0 250 52" fill="none" xmlns="http://www.w3.org/2000/svg">
<path d="M96.7969 28V13.7812H100.771C101.937 13.7812 102.982 14.0482 103.906 14.582C104.831 15.1094 105.55 15.8678 106.064 16.8574C106.585 17.847 106.846 18.9733 106.846 20.2363V21.5449C106.846 22.8145 106.589 23.9408 106.074 24.9238C105.56 25.9069 104.834 26.6654 103.896 27.1992C102.965 27.7331 101.895 28 100.684 28H96.7969ZM97.998 14.8066V26.9844H100.693C102.191 26.9844 103.392 26.4896 104.297 25.5C105.202 24.5039 105.654 23.1595 105.654 21.4668V20.2168C105.654 18.5827 105.208 17.2741 104.316 16.291C103.424 15.3079 102.249 14.8132 100.791 14.8066H97.998ZM109.384 22.5605C109.384 21.5449 109.58 20.6302 109.97 19.8164C110.367 19.0026 110.924 18.3711 111.64 17.9219C112.363 17.4661 113.18 17.2383 114.091 17.2383C115.498 17.2383 116.637 17.7331 117.509 18.7227C118.382 19.7057 118.818 21.0111 118.818 22.6387V22.8828C118.818 23.9049 118.619 24.8262 118.222 25.6465C117.832 26.4603 117.278 27.0885 116.562 27.5312C115.846 27.974 115.029 28.1953 114.111 28.1953C112.711 28.1953 111.572 27.7038 110.693 26.7207C109.821 25.7311 109.384 24.4225 109.384 22.7949V22.5605ZM110.556 22.8828C110.556 24.1458 110.882 25.1842 111.533 25.998C112.19 26.8053 113.05 27.209 114.111 27.209C115.166 27.209 116.018 26.8053 116.67 25.998C117.327 25.1842 117.656 24.1133 117.656 22.7852V22.5605C117.656 21.7533 117.506 21.0143 117.207 20.3438C116.907 19.6732 116.487 19.1556 115.947 18.791C115.407 18.4199 114.788 18.2344 114.091 18.2344C113.05 18.2344 112.2 18.6445 111.543 19.4648C110.885 20.2786 110.556 21.3464 110.556 22.668V22.8828ZM125.546 27.209C126.36 27.209 127.04 26.9811 127.587 26.5254C128.14 26.0632 128.44 25.4674 128.486 24.7383H129.609C129.576 25.3828 129.374 25.972 129.003 26.5059C128.632 27.0332 128.137 27.4466 127.519 27.7461C126.907 28.0456 126.249 28.1953 125.546 28.1953C124.159 28.1953 123.059 27.7135 122.245 26.75C121.438 25.7865 121.034 24.4909 121.034 22.8633V22.5117C121.034 21.4701 121.217 20.5488 121.581 19.748C121.946 18.9473 122.467 18.3288 123.144 17.8926C123.827 17.4564 124.625 17.2383 125.536 17.2383C126.695 17.2383 127.649 17.5833 128.398 18.2734C129.153 18.9635 129.557 19.8717 129.609 20.998H128.486C128.433 20.1712 128.134 19.5039 127.587 18.9961C127.047 18.4883 126.363 18.2344 125.536 18.2344C124.482 18.2344 123.661 18.6152 123.075 19.377C122.496 20.1387 122.206 21.2064 122.206 22.5801V22.9219C122.206 24.2695 122.496 25.321 123.075 26.0762C123.661 26.8314 124.485 27.209 125.546 27.209ZM139.149 26.6621C138.446 27.6842 137.323 28.1953 135.78 28.1953C134.654 28.1953 133.798 27.8698 133.212 27.2188C132.626 26.5612 132.326 25.5911 132.313 24.3086V17.4336H133.475V24.1621C133.475 26.1738 134.289 27.1797 135.917 27.1797C137.61 27.1797 138.68 26.4798 139.13 25.0801V17.4336H140.302V28H139.169L139.149 26.6621ZM144.813 17.4336L144.852 19.1523C145.243 18.5143 145.731 18.0358 146.317 17.7168C146.903 17.3978 147.554 17.2383 148.27 17.2383C149.937 17.2383 150.995 17.9219 151.444 19.2891C151.821 18.6315 152.326 18.127 152.957 17.7754C153.589 17.4173 154.286 17.2383 155.047 17.2383C157.313 17.2383 158.468 18.4753 158.514 20.9492V28H157.342V21.0371C157.336 20.0931 157.131 19.3932 156.727 18.9375C156.33 18.4818 155.679 18.2539 154.774 18.2539C153.934 18.2669 153.224 18.5404 152.645 19.0742C152.065 19.6016 151.743 20.2461 151.678 21.0078V28H150.506V20.9492C150.5 20.0443 150.285 19.3704 149.862 18.9277C149.445 18.4785 148.801 18.2539 147.928 18.2539C147.192 18.2539 146.561 18.4655 146.034 18.8887C145.506 19.3053 145.116 19.9271 144.862 20.7539V28H143.69V17.4336H144.813ZM165.975 28.1953C165.076 28.1953 164.262 27.974 163.533 27.5312C162.811 27.0885 162.247 26.4733 161.844 25.6855C161.44 24.8913 161.238 24.0026 161.238 23.0195V22.5996C161.238 21.584 161.434 20.6693 161.824 19.8555C162.221 19.0417 162.771 18.4036 163.475 17.9414C164.178 17.4727 164.939 17.2383 165.76 17.2383C167.042 17.2383 168.058 17.6777 168.807 18.5566C169.562 19.429 169.939 20.6237 169.939 22.1406V22.7949H162.4V23.0195C162.4 24.2174 162.742 25.2168 163.426 26.0176C164.116 26.8118 164.982 27.209 166.023 27.209C166.648 27.209 167.199 27.0951 167.674 26.8672C168.156 26.6393 168.592 26.2747 168.982 25.7734L169.715 26.3301C168.855 27.5736 167.609 28.1953 165.975 28.1953ZM165.76 18.2344C164.881 18.2344 164.139 18.5566 163.533 19.2012C162.934 19.8457 162.57 20.7116 162.439 21.7988H168.777V21.6719C168.745 20.6562 168.455 19.8294 167.908 19.1914C167.361 18.5534 166.645 18.2344 165.76 18.2344ZM173.728 17.4336L173.767 19.2402C174.164 18.5892 174.659 18.0944 175.252 17.7559C175.844 17.4108 176.498 17.2383 177.214 17.2383C178.347 17.2383 179.19 17.5573 179.744 18.1953C180.297 18.8333 180.577 19.7904 180.584 21.0664V28H179.421V21.0566C179.415 20.1126 179.213 19.4095 178.816 18.9473C178.425 18.485 177.797 18.2539 176.931 18.2539C176.209 18.2539 175.567 18.4818 175.007 18.9375C174.454 19.3867 174.044 19.9954 173.777 20.7637V28H172.615V17.4336H173.728ZM185.827 14.7285V17.4336H188.015V18.3906H185.827V25.4316C185.827 26.0176 185.932 26.4538 186.14 26.7402C186.355 27.0267 186.71 27.1699 187.204 27.1699C187.4 27.1699 187.715 27.1374 188.152 27.0723L188.2 28.0293C187.894 28.14 187.478 28.1953 186.95 28.1953C186.15 28.1953 185.567 27.9642 185.202 27.502C184.838 27.0332 184.655 26.3464 184.655 25.4414V18.3906H182.712V17.4336H184.655V14.7285H185.827ZM197.507 28C197.389 27.668 197.315 27.1764 197.282 26.5254C196.872 27.0592 196.348 27.4727 195.71 27.7656C195.078 28.0521 194.408 28.1953 193.698 28.1953C192.682 28.1953 191.859 27.9121 191.227 27.3457C190.602 26.7793 190.29 26.0632 190.29 25.1973C190.29 24.1686 190.716 23.3548 191.569 22.7559C192.429 22.1569 193.623 21.8574 195.153 21.8574H197.272V20.6562C197.272 19.901 197.038 19.3086 196.569 18.8789C196.107 18.4427 195.43 18.2246 194.538 18.2246C193.724 18.2246 193.05 18.4329 192.516 18.8496C191.983 19.2663 191.716 19.7676 191.716 20.3535L190.544 20.3438C190.544 19.5039 190.934 18.778 191.716 18.166C192.497 17.5475 193.457 17.2383 194.596 17.2383C195.775 17.2383 196.703 17.5345 197.38 18.127C198.063 18.7129 198.415 19.5332 198.434 20.5879V25.5879C198.434 26.61 198.542 27.375 198.757 27.8828V28H197.507ZM193.835 27.1602C194.616 27.1602 195.313 26.9714 195.925 26.5938C196.543 26.2161 196.992 25.7116 197.272 25.0801V22.7559H195.182C194.017 22.7689 193.106 22.9837 192.448 23.4004C191.79 23.8105 191.462 24.377 191.462 25.0996C191.462 25.6921 191.68 26.1836 192.116 26.5742C192.559 26.9648 193.132 27.1602 193.835 27.1602ZM203.776 14.7285V17.4336H205.963V18.3906H203.776V25.4316C203.776 26.0176 203.88 26.4538 204.088 26.7402C204.303 27.0267 204.658 27.1699 205.153 27.1699C205.348 27.1699 205.664 27.1374 206.1 27.0723L206.149 28.0293C205.843 28.14 205.426 28.1953 204.899 28.1953C204.098 28.1953 203.515 27.9642 203.151 27.502C202.786 27.0332 202.604 26.3464 202.604 25.4414V18.3906H200.661V17.4336H202.604V14.7285H203.776ZM210.094 28H208.922V17.4336H210.094V28ZM208.717 14.377C208.717 14.1556 208.788 13.9701 208.932 13.8203C209.075 13.6641 209.27 13.5859 209.518 13.5859C209.765 13.5859 209.96 13.6641 210.104 13.8203C210.253 13.9701 210.328 14.1556 210.328 14.377C210.328 14.5983 210.253 14.7839 210.104 14.9336C209.96 15.0833 209.765 15.1582 209.518 15.1582C209.27 15.1582 209.075 15.0833 208.932 14.9336C208.788 14.7839 208.717 14.5983 208.717 14.377ZM213.033 22.5605C213.033 21.5449 213.228 20.6302 213.619 19.8164C214.016 19.0026 214.573 18.3711 215.289 17.9219C216.011 17.4661 216.828 17.2383 217.74 17.2383C219.146 17.2383 220.285 17.7331 221.158 18.7227C222.03 19.7057 222.466 21.0111 222.466 22.6387V22.8828C222.466 23.9049 222.268 24.8262 221.871 25.6465C221.48 26.4603 220.927 27.0885 220.211 27.5312C219.494 27.974 218.677 28.1953 217.759 28.1953C216.36 28.1953 215.22 27.7038 214.341 26.7207C213.469 25.7311 213.033 24.4225 213.033 22.7949V22.5605ZM214.205 22.8828C214.205 24.1458 214.53 25.1842 215.181 25.998C215.839 26.8053 216.698 27.209 217.759 27.209C218.814 27.209 219.667 26.8053 220.318 25.998C220.976 25.1842 221.304 24.1133 221.304 22.7852V22.5605C221.304 21.7533 221.155 21.0143 220.855 20.3438C220.556 19.6732 220.136 19.1556 219.595 18.791C219.055 18.4199 218.436 18.2344 217.74 18.2344C216.698 18.2344 215.849 18.6445 215.191 19.4648C214.533 20.2786 214.205 21.3464 214.205 22.668V22.8828ZM226.402 17.4336L226.441 19.2402C226.838 18.5892 227.333 18.0944 227.925 17.7559C228.517 17.4108 229.172 17.2383 229.888 17.2383C231.021 17.2383 231.864 17.5573 232.417 18.1953C232.971 18.8333 233.251 19.7904 233.257 21.0664V28H232.095V21.0566C232.088 20.1126 231.887 19.4095 231.489 18.9473C231.099 18.485 230.471 18.2539 229.605 18.2539C228.882 18.2539 228.241 18.4818 227.681 18.9375C227.127 19.3867 226.717 19.9954 226.45 20.7637V28H225.288V17.4336H226.402Z" fill="#FFE600"/>
<path fill-rule="evenodd" clip-rule="evenodd" d="M95 8V31H82.3539V8H95ZM39.4602 15.4441C40.0624 15.4441 40.6603 15.4853 41.2539 15.5677C41.8475 15.6502 42.3852 15.8192 42.8669 16.0747C43.3487 16.3303 43.7358 16.6889 44.0283 17.1505C44.3208 17.6122 44.467 18.214 44.467 18.9559V25.5344C44.467 26.029 44.4971 26.3918 44.5574 26.6226C44.6176 26.8534 44.8198 26.9688 45.1639 26.9688C45.3531 26.9688 45.5768 26.9276 45.8349 26.8452V28.4774C45.4564 28.6918 44.9316 28.7989 44.2606 28.7989C43.6928 28.7989 43.2411 28.6464 42.9056 28.3414C42.5701 28.0364 42.4024 27.5376 42.4024 26.8452C41.8002 27.5376 41.099 28.0364 40.299 28.3414C39.4989 28.6464 38.6343 28.7989 37.7052 28.7989C37.103 28.7989 36.5309 28.733 35.989 28.6011C35.447 28.4692 34.9781 28.2631 34.5824 27.9828C34.1867 27.7025 33.8727 27.3357 33.6404 26.8823C33.4081 26.4289 33.292 25.8806 33.292 25.2376C33.292 24.5122 33.421 23.9186 33.6791 23.457C33.9372 22.9953 34.277 22.6203 34.6985 22.3317C35.1201 22.0432 35.6018 21.8247 36.1438 21.6763C36.6858 21.528 37.2407 21.4043 37.8085 21.3054C38.4107 21.19 38.9827 21.1034 39.5247 21.0457C40.0667 20.988 40.5441 20.9056 40.9571 20.7984C41.37 20.6912 41.6969 20.5346 41.9378 20.3285C42.1787 20.1224 42.2991 19.8215 42.2991 19.4258C42.2991 18.9642 42.2088 18.5932 42.0281 18.3129C41.8475 18.0326 41.6152 17.8183 41.3313 17.6699C41.0474 17.5215 40.7291 17.4226 40.3764 17.3731C40.0237 17.3237 39.6753 17.2989 39.3312 17.2989C38.402 17.2989 37.6278 17.4679 37.0084 17.8059C36.389 18.1439 36.0535 18.7828 36.0019 19.7226H33.8081C33.8426 18.9312 34.0146 18.2634 34.3243 17.7194C34.634 17.1753 35.0469 16.7342 35.5631 16.3962C36.0793 16.0582 36.6686 15.8151 37.331 15.6667C37.9934 15.5183 38.7031 15.4441 39.4602 15.4441ZM66.8172 15.4441C68.0044 15.4441 68.9894 15.679 69.7722 16.1489C70.5551 16.6188 71.1831 17.2165 71.6562 17.9419C72.1294 18.6674 72.4563 19.4588 72.637 20.3161C72.8176 21.1735 72.8908 21.9896 72.8563 22.7645H62.8685C62.8513 23.3251 62.9201 23.8568 63.0749 24.3597C63.2298 24.8625 63.4793 25.3077 63.8234 25.6952C64.1675 26.0826 64.6062 26.3918 65.1396 26.6226C65.673 26.8534 66.301 26.9688 67.0236 26.9688C67.9527 26.9688 68.7141 26.7627 69.3077 26.3505C69.9013 25.9383 70.2927 25.3118 70.482 24.471H72.6499C72.3574 25.9054 71.7122 26.9853 70.7142 27.7108C69.7163 28.4362 68.4603 28.7989 66.9462 28.7989C65.8795 28.7989 64.9547 28.6341 64.1718 28.3043C63.3889 27.9746 62.7308 27.5129 62.1974 26.9194C61.6641 26.3258 61.264 25.6168 60.9974 24.7925C60.7307 23.9681 60.5801 23.0695 60.5457 22.0968C60.5457 21.124 60.7006 20.2337 61.0103 19.4258C61.32 18.6179 61.7544 17.9172 62.3136 17.3237C62.8728 16.7301 63.5352 16.2685 64.3008 15.9387C65.0665 15.609 65.9053 15.4441 66.8172 15.4441ZM88.1349 15.4441C87.55 15.4441 86.9607 15.5142 86.3671 15.6543C85.7735 15.7944 85.2401 16.0088 84.7669 16.2973C84.2938 16.5858 83.9067 16.9609 83.6056 17.4226C83.3045 17.8842 83.1539 18.4366 83.1539 19.0796C83.1539 19.9039 83.369 20.547 83.7991 21.0086C84.2293 21.4703 84.7669 21.8289 85.4122 22.0844C86.0574 22.34 86.7585 22.5378 87.5155 22.678C88.2726 22.8181 88.9737 22.9747 89.6189 23.1479C90.2641 23.321 90.8018 23.5477 91.232 23.828C91.6621 24.1082 91.8772 24.5204 91.8772 25.0645C91.8772 25.4602 91.7739 25.7858 91.5675 26.0414C91.361 26.297 91.0986 26.4907 90.7803 26.6226C90.462 26.7545 90.1136 26.8452 89.7351 26.8946C89.3565 26.9441 88.9952 26.9688 88.6511 26.9688C88.2038 26.9688 87.7693 26.9276 87.3478 26.8452C86.9263 26.7627 86.5477 26.6267 86.2122 26.4371C85.8767 26.2475 85.6057 25.9919 85.3992 25.6704C85.1928 25.3489 85.0809 24.9573 85.0637 24.4957H82.87C82.9044 25.2871 83.0765 25.959 83.3862 26.5113C83.6959 27.0636 84.1088 27.5088 84.625 27.8468C85.1412 28.1848 85.7348 28.428 86.4058 28.5763C87.0768 28.7247 87.7822 28.7989 88.5221 28.7989C89.1931 28.7989 89.8684 28.7371 90.548 28.6134C91.2277 28.4898 91.8385 28.2713 92.3804 27.9581C92.9224 27.6448 93.3612 27.2326 93.6967 26.7215C94.0322 26.2104 94.1999 25.5674 94.1999 24.7925C94.1999 24.1824 94.0752 23.6713 93.8257 23.2591C93.5762 22.847 93.2493 22.5048 92.845 22.2328C92.4407 21.9608 91.9761 21.7423 91.4513 21.5774C90.9266 21.4125 90.3889 21.2724 89.8383 21.157C89.3221 21.0416 88.806 20.9303 88.2898 20.8231C87.7736 20.716 87.3091 20.5841 86.8961 20.4274C86.4832 20.2708 86.1434 20.0729 85.8767 19.8339C85.61 19.5948 85.4767 19.2939 85.4767 18.9312C85.4767 18.6014 85.5627 18.3335 85.7348 18.1274C85.9068 17.9213 86.1305 17.7565 86.4058 17.6328C86.6811 17.5091 86.9865 17.4226 87.322 17.3731C87.6575 17.3237 87.9887 17.2989 88.3156 17.2989C88.6769 17.2989 89.0339 17.336 89.3867 17.4102C89.7394 17.4844 90.062 17.6039 90.3545 17.7688C90.647 17.9337 90.8878 18.1522 91.0771 18.4242C91.2664 18.6962 91.3782 19.0383 91.4126 19.4505H93.6063C93.5547 18.6756 93.3827 18.0285 93.0902 17.5091C92.7977 16.9898 92.4062 16.5776 91.9159 16.2726C91.4255 15.9676 90.862 15.7532 90.2254 15.6296C89.5888 15.5059 88.892 15.4441 88.1349 15.4441ZM26.2721 15.4441C26.9431 15.4441 27.5496 15.5142 28.0916 15.6543C28.6336 15.7944 29.0981 16.0129 29.4852 16.3097C29.8724 16.6065 30.1735 16.9898 30.3885 17.4597C30.6036 17.9296 30.7111 18.4943 30.7111 19.1538V28.5269H28.5174V20.143C28.5174 19.7473 28.483 19.3763 28.4142 19.0301C28.3454 18.6839 28.2163 18.383 28.0271 18.1274C27.8378 17.8719 27.5754 17.6699 27.2399 17.5215C26.9044 17.3731 26.4699 17.2989 25.9366 17.2989C24.8526 17.2989 24.0009 17.5957 23.3815 18.1892C22.7621 18.7828 22.4524 19.5742 22.4524 20.5634V28.5269H20.2587V20.143C20.2587 19.7308 20.22 19.3516 20.1426 19.0054C20.0651 18.6591 19.9318 18.3582 19.7425 18.1027C19.5533 17.8471 19.2995 17.6493 18.9812 17.5091C18.6629 17.369 18.2543 17.2989 17.7553 17.2989C17.1187 17.2989 16.5724 17.4226 16.1164 17.6699C15.6605 17.9172 15.2906 18.214 15.0067 18.5602C14.7228 18.9065 14.5163 19.2651 14.3873 19.636C14.2582 20.007 14.1937 20.3161 14.1937 20.5634V28.5269H12V15.7409H14.0647V17.6204H14.1163C15.1142 16.1695 16.5509 15.4441 18.4263 15.4441C19.2522 15.4441 20.0006 15.609 20.6716 15.9387C21.3427 16.2685 21.8158 16.829 22.0911 17.6204C22.5385 16.928 23.1277 16.3921 23.859 16.0129C24.5902 15.6337 25.3946 15.4441 26.2721 15.4441ZM50.1965 10.8688V21.3301L56.2873 15.7409H59.2295L53.9387 20.3903L59.6166 28.5269H56.8293L52.2612 21.8495L50.1965 23.6796V28.5269H48.0028V10.8688H50.1965ZM82.07 15.4441V17.6699C81.1925 17.6699 80.444 17.7853 79.8246 18.0161C79.2052 18.247 78.7063 18.5849 78.3277 19.0301C77.9492 19.4753 77.6739 20.0152 77.5019 20.65C77.3298 21.2848 77.2438 22.0143 77.2438 22.8387V28.5269H75.0501V15.7409H77.1147V18.4366H77.1664C77.6997 17.3978 78.3535 16.6312 79.1278 16.1366C79.9021 15.6419 80.8828 15.4111 82.07 15.4441ZM42.2733 21.9237C41.998 22.1215 41.6367 22.2658 41.1894 22.3565C40.742 22.4471 40.2732 22.5213 39.7828 22.579C39.2924 22.6367 38.7978 22.7027 38.2988 22.7769C37.7999 22.8511 37.3525 22.9706 36.9568 23.1355C36.561 23.3004 36.2384 23.5353 35.989 23.8403C35.7395 24.1453 35.6147 24.5616 35.6147 25.0892C35.6147 25.4355 35.6879 25.7281 35.8341 25.9672C35.9804 26.2063 36.1696 26.4 36.4019 26.5484C36.6342 26.6968 36.9052 26.8039 37.2149 26.8699C37.5246 26.9358 37.8515 26.9688 38.1956 26.9688C38.9182 26.9688 39.5376 26.874 40.0538 26.6844C40.57 26.4948 40.9915 26.2557 41.3184 25.9672C41.6453 25.6787 41.8862 25.3654 42.041 25.0274C42.1959 24.6894 42.2733 24.372 42.2733 24.0753V21.9237ZM66.6881 17.2989C66.1203 17.2989 65.6085 17.3937 65.1525 17.5833C64.6966 17.7729 64.3051 18.0326 63.9782 18.3624C63.6513 18.6921 63.3932 19.0754 63.204 19.5124C63.0147 19.9493 62.9029 20.4151 62.8685 20.9097H70.5336C70.4992 20.4151 70.383 19.9452 70.1852 19.5C69.9873 19.0548 69.7206 18.6715 69.3851 18.35C69.0496 18.0285 68.6539 17.7729 68.1979 17.5833C67.742 17.3937 67.2387 17.2989 66.6881 17.2989Z" fill="white"/>
</svg>
