<svg width="228" height="71" viewBox="0 0 228 71" fill="none" xmlns="http://www.w3.org/2000/svg">
<path fill-rule="evenodd" clip-rule="evenodd" d="M95 19V42H82.3539V19H95ZM39.4602 26.4441C40.0624 26.4441 40.6603 26.4853 41.2539 26.5677C41.8475 26.6502 42.3852 26.8192 42.8669 27.0747C43.3487 27.3303 43.7358 27.6889 44.0283 28.1505C44.3208 28.6122 44.467 29.214 44.467 29.9559V36.5344C44.467 37.029 44.4971 37.3918 44.5574 37.6226C44.6176 37.8534 44.8198 37.9688 45.1639 37.9688C45.3531 37.9688 45.5768 37.9276 45.8349 37.8452V39.4774C45.4564 39.6918 44.9316 39.7989 44.2606 39.7989C43.6928 39.7989 43.2411 39.6464 42.9056 39.3414C42.5701 39.0364 42.4024 38.5376 42.4024 37.8452C41.8002 38.5376 41.099 39.0364 40.299 39.3414C39.4989 39.6464 38.6343 39.7989 37.7052 39.7989C37.103 39.7989 36.5309 39.733 35.989 39.6011C35.447 39.4692 34.9781 39.2631 34.5824 38.9828C34.1867 38.7025 33.8727 38.3357 33.6404 37.8823C33.4081 37.4289 33.292 36.8806 33.292 36.2376C33.292 35.5122 33.421 34.9186 33.6791 34.457C33.9372 33.9953 34.277 33.6203 34.6985 33.3317C35.1201 33.0432 35.6018 32.8247 36.1438 32.6763C36.6858 32.528 37.2407 32.4043 37.8085 32.3054C38.4107 32.19 38.9827 32.1034 39.5247 32.0457C40.0667 31.988 40.5441 31.9056 40.9571 31.7984C41.37 31.6912 41.6969 31.5346 41.9378 31.3285C42.1787 31.1224 42.2991 30.8215 42.2991 30.4258C42.2991 29.9642 42.2088 29.5932 42.0281 29.3129C41.8475 29.0326 41.6152 28.8183 41.3313 28.6699C41.0474 28.5215 40.7291 28.4226 40.3764 28.3731C40.0237 28.3237 39.6753 28.2989 39.3312 28.2989C38.402 28.2989 37.6278 28.4679 37.0084 28.8059C36.389 29.1439 36.0535 29.7828 36.0019 30.7226H33.8081C33.8426 29.9312 34.0146 29.2634 34.3243 28.7194C34.634 28.1753 35.0469 27.7342 35.5631 27.3962C36.0793 27.0582 36.6686 26.8151 37.331 26.6667C37.9934 26.5183 38.7031 26.4441 39.4602 26.4441ZM66.8172 26.4441C68.0044 26.4441 68.9894 26.679 69.7722 27.1489C70.5551 27.6188 71.1831 28.2165 71.6562 28.9419C72.1294 29.6674 72.4563 30.4588 72.637 31.3161C72.8176 32.1735 72.8908 32.9896 72.8563 33.7645H62.8685C62.8513 34.3251 62.9201 34.8568 63.0749 35.3597C63.2298 35.8625 63.4793 36.3077 63.8234 36.6952C64.1675 37.0826 64.6062 37.3918 65.1396 37.6226C65.673 37.8534 66.301 37.9688 67.0236 37.9688C67.9527 37.9688 68.7141 37.7627 69.3077 37.3505C69.9013 36.9383 70.2927 36.3118 70.482 35.471H72.6499C72.3574 36.9054 71.7122 37.9853 70.7142 38.7108C69.7163 39.4362 68.4603 39.7989 66.9462 39.7989C65.8795 39.7989 64.9547 39.6341 64.1718 39.3043C63.3889 38.9746 62.7308 38.5129 62.1974 37.9194C61.6641 37.3258 61.264 36.6168 60.9974 35.7925C60.7307 34.9681 60.5801 34.0695 60.5457 33.0968C60.5457 32.124 60.7006 31.2337 61.0103 30.4258C61.32 29.6179 61.7544 28.9172 62.3136 28.3237C62.8728 27.7301 63.5352 27.2685 64.3008 26.9387C65.0665 26.609 65.9053 26.4441 66.8172 26.4441ZM88.1349 26.4441C87.55 26.4441 86.9607 26.5142 86.3671 26.6543C85.7735 26.7944 85.2401 27.0088 84.7669 27.2973C84.2938 27.5858 83.9067 27.9609 83.6056 28.4226C83.3045 28.8842 83.1539 29.4366 83.1539 30.0796C83.1539 30.9039 83.369 31.547 83.7991 32.0086C84.2293 32.4703 84.7669 32.8289 85.4122 33.0844C86.0574 33.34 86.7585 33.5378 87.5155 33.678C88.2726 33.8181 88.9737 33.9747 89.6189 34.1479C90.2641 34.321 90.8018 34.5477 91.232 34.828C91.6621 35.1082 91.8772 35.5204 91.8772 36.0645C91.8772 36.4602 91.7739 36.7858 91.5675 37.0414C91.361 37.297 91.0986 37.4907 90.7803 37.6226C90.462 37.7545 90.1136 37.8452 89.7351 37.8946C89.3565 37.9441 88.9952 37.9688 88.6511 37.9688C88.2038 37.9688 87.7693 37.9276 87.3478 37.8452C86.9263 37.7627 86.5477 37.6267 86.2122 37.4371C85.8767 37.2475 85.6057 36.9919 85.3992 36.6704C85.1928 36.3489 85.0809 35.9573 85.0637 35.4957H82.87C82.9044 36.2871 83.0765 36.959 83.3862 37.5113C83.6959 38.0636 84.1088 38.5088 84.625 38.8468C85.1412 39.1848 85.7348 39.428 86.4058 39.5763C87.0768 39.7247 87.7822 39.7989 88.5221 39.7989C89.1931 39.7989 89.8684 39.7371 90.548 39.6134C91.2277 39.4898 91.8385 39.2713 92.3804 38.9581C92.9224 38.6448 93.3612 38.2326 93.6967 37.7215C94.0322 37.2104 94.1999 36.5674 94.1999 35.7925C94.1999 35.1824 94.0752 34.6713 93.8257 34.2591C93.5762 33.847 93.2493 33.5048 92.845 33.2328C92.4407 32.9608 91.9761 32.7423 91.4513 32.5774C90.9266 32.4125 90.3889 32.2724 89.8383 32.157C89.3221 32.0416 88.806 31.9303 88.2898 31.8231C87.7736 31.716 87.3091 31.5841 86.8961 31.4274C86.4832 31.2708 86.1434 31.0729 85.8767 30.8339C85.61 30.5948 85.4767 30.2939 85.4767 29.9312C85.4767 29.6014 85.5627 29.3335 85.7348 29.1274C85.9068 28.9213 86.1305 28.7565 86.4058 28.6328C86.6811 28.5091 86.9865 28.4226 87.322 28.3731C87.6575 28.3237 87.9887 28.2989 88.3156 28.2989C88.6769 28.2989 89.0339 28.336 89.3867 28.4102C89.7394 28.4844 90.062 28.6039 90.3545 28.7688C90.647 28.9337 90.8878 29.1522 91.0771 29.4242C91.2664 29.6962 91.3782 30.0383 91.4126 30.4505H93.6063C93.5547 29.6756 93.3827 29.0285 93.0902 28.5091C92.7977 27.9898 92.4062 27.5776 91.9159 27.2726C91.4255 26.9676 90.862 26.7532 90.2254 26.6296C89.5888 26.5059 88.892 26.4441 88.1349 26.4441ZM26.2721 26.4441C26.9431 26.4441 27.5496 26.5142 28.0916 26.6543C28.6336 26.7944 29.0981 27.0129 29.4852 27.3097C29.8724 27.6065 30.1735 27.9898 30.3885 28.4597C30.6036 28.9296 30.7111 29.4943 30.7111 30.1538V39.5269H28.5174V31.143C28.5174 30.7473 28.483 30.3763 28.4142 30.0301C28.3454 29.6839 28.2163 29.383 28.0271 29.1274C27.8378 28.8719 27.5754 28.6699 27.2399 28.5215C26.9044 28.3731 26.4699 28.2989 25.9366 28.2989C24.8526 28.2989 24.0009 28.5957 23.3815 29.1892C22.7621 29.7828 22.4524 30.5742 22.4524 31.5634V39.5269H20.2587V31.143C20.2587 30.7308 20.22 30.3516 20.1426 30.0054C20.0651 29.6591 19.9318 29.3582 19.7425 29.1027C19.5533 28.8471 19.2995 28.6493 18.9812 28.5091C18.6629 28.369 18.2543 28.2989 17.7553 28.2989C17.1187 28.2989 16.5724 28.4226 16.1164 28.6699C15.6605 28.9172 15.2906 29.214 15.0067 29.5602C14.7228 29.9065 14.5163 30.2651 14.3873 30.636C14.2582 31.007 14.1937 31.3161 14.1937 31.5634V39.5269H12V26.7409H14.0647V28.6204H14.1163C15.1142 27.1695 16.5509 26.4441 18.4263 26.4441C19.2522 26.4441 20.0006 26.609 20.6716 26.9387C21.3427 27.2685 21.8158 27.829 22.0911 28.6204C22.5385 27.928 23.1277 27.3921 23.859 27.0129C24.5902 26.6337 25.3946 26.4441 26.2721 26.4441ZM50.1965 21.8688V32.3301L56.2873 26.7409H59.2295L53.9387 31.3903L59.6166 39.5269H56.8293L52.2612 32.8495L50.1965 34.6796V39.5269H48.0028V21.8688H50.1965ZM82.07 26.4441V28.6699C81.1925 28.6699 80.444 28.7853 79.8246 29.0161C79.2052 29.247 78.7063 29.5849 78.3277 30.0301C77.9492 30.4753 77.6739 31.0152 77.5019 31.65C77.3298 32.2848 77.2438 33.0143 77.2438 33.8387V39.5269H75.0501V26.7409H77.1147V29.4366H77.1664C77.6997 28.3978 78.3535 27.6312 79.1278 27.1366C79.9021 26.6419 80.8828 26.4111 82.07 26.4441ZM42.2733 32.9237C41.998 33.1215 41.6367 33.2658 41.1894 33.3565C40.742 33.4471 40.2732 33.5213 39.7828 33.579C39.2924 33.6367 38.7978 33.7027 38.2988 33.7769C37.7999 33.8511 37.3525 33.9706 36.9568 34.1355C36.561 34.3004 36.2384 34.5353 35.989 34.8403C35.7395 35.1453 35.6147 35.5616 35.6147 36.0892C35.6147 36.4355 35.6879 36.7281 35.8341 36.9672C35.9804 37.2063 36.1696 37.4 36.4019 37.5484C36.6342 37.6968 36.9052 37.8039 37.2149 37.8699C37.5246 37.9358 37.8515 37.9688 38.1956 37.9688C38.9182 37.9688 39.5376 37.874 40.0538 37.6844C40.57 37.4948 40.9915 37.2557 41.3184 36.9672C41.6453 36.6787 41.8862 36.3654 42.041 36.0274C42.1959 35.6894 42.2733 35.372 42.2733 35.0753V32.9237ZM66.6881 28.2989C66.1203 28.2989 65.6085 28.3937 65.1525 28.5833C64.6966 28.7729 64.3051 29.0326 63.9782 29.3624C63.6513 29.6921 63.3932 30.0754 63.204 30.5124C63.0147 30.9493 62.9029 31.4151 62.8685 31.9097H70.5336C70.4992 31.4151 70.383 30.9452 70.1852 30.5C69.9873 30.0548 69.7206 29.6715 69.3851 29.35C69.0496 29.0285 68.6539 28.7729 68.1979 28.5833C67.742 28.3937 67.2387 28.2989 66.6881 28.2989Z" fill="#FFE600"/>
<path d="M108.052 34.123C107.873 35.7702 107.282 37.0306 106.279 37.9043C105.284 38.778 103.955 39.2148 102.294 39.2148C101.134 39.2148 100.106 38.9248 99.2109 38.3447C98.3229 37.7646 97.6354 36.9447 97.1484 35.8848C96.6615 34.8177 96.4144 33.6003 96.4072 32.2324V30.2021C96.4072 28.8128 96.6507 27.5811 97.1377 26.5068C97.6247 25.4326 98.3229 24.6055 99.2324 24.0254C100.149 23.4382 101.202 23.1445 102.391 23.1445C104.066 23.1445 105.388 23.5993 106.354 24.5088C107.328 25.4111 107.894 26.6608 108.052 28.2578H106.72C106.39 25.6009 104.947 24.2725 102.391 24.2725C100.973 24.2725 99.8411 24.8024 98.9961 25.8623C98.1582 26.9222 97.7393 28.3867 97.7393 30.2559V32.168C97.7393 33.9727 98.1475 35.4121 98.9639 36.4863C99.7874 37.5605 100.897 38.0977 102.294 38.0977C103.676 38.0977 104.718 37.7682 105.42 37.1094C106.122 36.4434 106.555 35.4479 106.72 34.123H108.052ZM110.694 33.0166C110.694 31.8994 110.909 30.8932 111.338 29.998C111.775 29.1029 112.388 28.4082 113.175 27.9141C113.97 27.4128 114.869 27.1621 115.872 27.1621C117.419 27.1621 118.672 27.7064 119.631 28.7949C120.591 29.8763 121.071 31.3122 121.071 33.1025V33.3711C121.071 34.4954 120.852 35.5088 120.416 36.4111C119.986 37.3063 119.377 37.9974 118.589 38.4844C117.802 38.9714 116.903 39.2148 115.893 39.2148C114.353 39.2148 113.1 38.6742 112.133 37.5928C111.174 36.5042 110.694 35.0648 110.694 33.2744V33.0166ZM111.983 33.3711C111.983 34.7604 112.341 35.9027 113.057 36.7979C113.78 37.6859 114.726 38.1299 115.893 38.1299C117.053 38.1299 117.991 37.6859 118.708 36.7979C119.431 35.9027 119.793 34.7246 119.793 33.2637V33.0166C119.793 32.1286 119.628 31.3158 119.298 30.5781C118.969 29.8405 118.507 29.2712 117.913 28.8701C117.318 28.4619 116.638 28.2578 115.872 28.2578C114.726 28.2578 113.791 28.709 113.068 29.6113C112.345 30.5065 111.983 31.681 111.983 33.1348V33.3711ZM125.346 27.377L125.389 29.2676C125.818 28.5658 126.356 28.0394 127 27.6885C127.645 27.3376 128.361 27.1621 129.149 27.1621C130.982 27.1621 132.146 27.9141 132.64 29.418C133.055 28.6947 133.61 28.1396 134.305 27.7529C134.999 27.359 135.766 27.1621 136.604 27.1621C139.096 27.1621 140.367 28.5228 140.417 31.2441V39H139.128V31.3408C139.121 30.3024 138.895 29.5326 138.451 29.0312C138.014 28.5299 137.298 28.2793 136.303 28.2793C135.379 28.2936 134.598 28.5944 133.961 29.1816C133.324 29.7617 132.969 30.4707 132.898 31.3086V39H131.609V31.2441C131.601 30.2487 131.365 29.5075 130.9 29.0205C130.441 28.5264 129.732 28.2793 128.773 28.2793C127.963 28.2793 127.269 28.512 126.689 28.9775C126.109 29.4359 125.679 30.1198 125.4 31.0293V39H124.11V27.377H125.346ZM145.294 27.377L145.337 29.2676C145.766 28.5658 146.303 28.0394 146.948 27.6885C147.592 27.3376 148.309 27.1621 149.096 27.1621C150.93 27.1621 152.093 27.9141 152.588 29.418C153.003 28.6947 153.558 28.1396 154.253 27.7529C154.947 27.359 155.714 27.1621 156.551 27.1621C159.044 27.1621 160.315 28.5228 160.365 31.2441V39H159.076V31.3408C159.069 30.3024 158.843 29.5326 158.399 29.0312C157.962 28.5299 157.246 28.2793 156.251 28.2793C155.327 28.2936 154.546 28.5944 153.909 29.1816C153.271 29.7617 152.917 30.4707 152.845 31.3086V39H151.556V31.2441C151.549 30.2487 151.313 29.5075 150.847 29.0205C150.389 28.5264 149.68 28.2793 148.72 28.2793C147.911 28.2793 147.216 28.512 146.636 28.9775C146.056 29.4359 145.627 30.1198 145.347 31.0293V39H144.058V27.377H145.294ZM171.547 37.5283C170.774 38.6527 169.538 39.2148 167.841 39.2148C166.602 39.2148 165.66 38.8568 165.016 38.1406C164.371 37.4173 164.042 36.3503 164.028 34.9395V27.377H165.306V34.7783C165.306 36.9912 166.201 38.0977 167.991 38.0977C169.853 38.0977 171.031 37.3278 171.526 35.7881V27.377H172.815V39H171.569L171.547 37.5283ZM177.831 27.377L177.874 29.3643C178.311 28.6481 178.855 28.1038 179.507 27.7314C180.158 27.3519 180.878 27.1621 181.666 27.1621C182.912 27.1621 183.839 27.513 184.448 28.2148C185.057 28.9167 185.365 29.9694 185.372 31.373V39H184.094V31.3623C184.086 30.3239 183.864 29.5505 183.428 29.042C182.998 28.5335 182.307 28.2793 181.354 28.2793C180.559 28.2793 179.854 28.5299 179.238 29.0312C178.629 29.5254 178.178 30.195 177.885 31.04V39H176.606V27.377H177.831ZM190.581 39H189.292V27.377H190.581V39ZM189.067 24.0146C189.067 23.7712 189.146 23.5671 189.303 23.4023C189.461 23.2305 189.675 23.1445 189.948 23.1445C190.22 23.1445 190.435 23.2305 190.592 23.4023C190.757 23.5671 190.839 23.7712 190.839 24.0146C190.839 24.2581 190.757 24.4622 190.592 24.627C190.435 24.7917 190.22 24.874 189.948 24.874C189.675 24.874 189.461 24.7917 189.303 24.627C189.146 24.4622 189.067 24.2581 189.067 24.0146ZM196.521 24.4014V27.377H198.928V28.4297H196.521V36.1748C196.521 36.8193 196.636 37.2992 196.865 37.6143C197.101 37.9294 197.492 38.0869 198.036 38.0869C198.251 38.0869 198.598 38.0511 199.078 37.9795L199.132 39.0322C198.795 39.154 198.337 39.2148 197.757 39.2148C196.876 39.2148 196.235 38.9606 195.834 38.4521C195.433 37.9365 195.232 37.181 195.232 36.1855V28.4297H193.095V27.377H195.232V24.4014H196.521ZM205.716 37.1523L209.111 27.377H210.497L205.534 40.9766L205.276 41.5781C204.638 42.9889 203.654 43.6943 202.322 43.6943C202.014 43.6943 201.684 43.6442 201.333 43.5439L201.323 42.4805L201.989 42.5449C202.619 42.5449 203.127 42.3874 203.514 42.0723C203.908 41.7643 204.241 41.2308 204.513 40.4717L205.082 38.9033L200.7 27.377H202.107L205.716 37.1523Z" fill="white"/>
</svg>
